HIERARCHY
ROOT Hips
{
	OFFSET 0.000000 0.000000 0.000000
	CHANNELS 6 Xposition Yposition Zposition Xrotation Yrotation Zrotation
	JOINT C_ctrl
	{
		OFFSET 0.000000 35.040482 -0.000011
		CHANNELS 3 Xrotation Yrotation Zrotation
		JOINT Bip01
		{
			OFFSET -41.537640 41.789009 -0.000007
			CHANNELS 3 Xrotation Yrotation Zrotation
			JOINT Bip01_Pelvis
			{
				OFFSET -2.462887 0.000000 0.000000
				CHANNELS 3 Xrotation Yrotation Zrotation
				JOINT BN_Tail_01
				{
					OFFSET -11.399368 7.351341 -0.000013
					CHANNELS 3 Xrotation Yrotation Zrotation
					JOINT BN_Tail_02
					{
						OFFSET -11.365196 -0.343025 0.000012
						CHANNELS 3 Xrotation Yrotation Zrotation
						JOINT BN_Tail_03
						{
							OFFSET -15.076256 -0.454979 0.000017
							CHANNELS 3 Xrotation Yrotation Zrotation
							JOINT BN_Tail_04
							{
								OFFSET -17.395691 -0.525002 0.000016
								CHANNELS 3 Xrotation Yrotation Zrotation
								JOINT BN_Tail_05
								{
									OFFSET -16.699837 -0.504005 0.000016
									CHANNELS 3 Xrotation Yrotation Zrotation
									End Site
									{
										OFFSET 0.503998 -16.699829 0.000067
									}
								}
							}
						}
					}
				}
				JOINT Bip01_Spine
				{
					OFFSET 8.297798 5.916809 -0.000020
					CHANNELS 3 Xrotation Yrotation Zrotation
					JOINT Bip01_R_Thigh
					{
						OFFSET -8.297779 -5.916794 10.541781
						CHANNELS 3 Xrotation Yrotation Zrotation
						JOINT Bip01_R_Calf
						{
							OFFSET 5.631542 -22.906792 0.862690
							CHANNELS 3 Xrotation Yrotation Zrotation
							JOINT Bip01_R_HorseLink
							{
								OFFSET -16.984341 -19.231926 -3.555767
								CHANNELS 3 Xrotation Yrotation Zrotation
								JOINT Bip01_R_Foot
								{
									OFFSET 4.290367 -24.783146 0.578056
									CHANNELS 3 Xrotation Yrotation Zrotation
									JOINT Bip01_R_Toe0
									{
										OFFSET 3.561211 -5.815116 0.760802
										CHANNELS 3 Xrotation Yrotation Zrotation
										JOINT Bip01_R_Toe0Nub
										{
											OFFSET 16.135469 0.002017 1.534789
											CHANNELS 3 Xrotation Yrotation Zrotation
											End Site
											{
												OFFSET -0.000002 16.208284 -0.000056
											}
										}
									}
								}
							}
						}
					}
					JOINT Bip01_L_Thigh
					{
						OFFSET -8.297813 -5.916832 -10.541739
						CHANNELS 3 Xrotation Yrotation Zrotation
						JOINT Bip01_L_Calf
						{
							OFFSET 5.631535 -22.906792 -0.862625
							CHANNELS 3 Xrotation Yrotation Zrotation
							JOINT Bip01_L_HorseLink
							{
								OFFSET -16.984318 -19.231949 3.555875
								CHANNELS 3 Xrotation Yrotation Zrotation
								JOINT Bip01_L_Foot
								{
									OFFSET 4.290367 -24.783169 -0.577965
									CHANNELS 3 Xrotation Yrotation Zrotation
									JOINT Bip01_L_Toe0
									{
										OFFSET 3.561245 -5.815111 -0.760799
										CHANNELS 3 Xrotation Yrotation Zrotation
										JOINT Bip01_L_Toe0Nub
										{
											OFFSET 6.574303 -0.000005 -1.538561
											CHANNELS 3 Xrotation Yrotation Zrotation
											End Site
											{
												OFFSET 0.000004 -6.751935 0.000023
											}
										}
									}
								}
							}
						}
					}
					JOINT Bip01_Spine1
					{
						OFFSET 20.556803 -4.626213 -0.000025
						CHANNELS 3 Xrotation Yrotation Zrotation
						JOINT Saddle
						{
							OFFSET 17.608810 18.174690 -0.000143
							CHANNELS 3 Xrotation Yrotation Zrotation
							End Site
							{
								OFFSET -0.000063 -0.000061 -22.448387
							}
						}
						JOINT BN_center
						{
							OFFSET 10.743275 -13.417107 -0.172041
							CHANNELS 3 Xrotation Yrotation Zrotation
							End Site
							{
								OFFSET 22.434088 0.553078 -0.579614
							}
						}
						JOINT Bip01_Spine2
						{
							OFFSET 24.765072 -2.054115 -0.000032
							CHANNELS 3 Xrotation Yrotation Zrotation
							JOINT Handle
							{
								OFFSET 63.735676 16.430748 -16.052464
								CHANNELS 3 Xrotation Yrotation Zrotation
								JOINT IK_Chain01
								{
									OFFSET -4.713058 -6.020439 0.185448
									CHANNELS 3 Xrotation Yrotation Zrotation
									End Site
									{
										OFFSET -0.000023 -0.000023 -7.648071
									}
								}
							}
							JOINT BN_hair04_01
							{
								OFFSET 1.987491 16.256981 -2.049672
								CHANNELS 3 Xrotation Yrotation Zrotation
								JOINT BN_hair04_02
								{
									OFFSET -1.318762 -3.831451 -6.174704
									CHANNELS 3 Xrotation Yrotation Zrotation
									JOINT BN_hair04_03
									{
										OFFSET -0.827490 -5.886627 -5.656666
										CHANNELS 3 Xrotation Yrotation Zrotation
										End Site
										{
											OFFSET -2.658262 5.010620 -5.929780
										}
									}
								}
							}
							JOINT Bip01_Neck
							{
								OFFSET 25.574577 9.433014 -0.000084
								CHANNELS 3 Xrotation Yrotation Zrotation
								JOINT Bip01_R_Clavicle
								{
									OFFSET -16.535652 0.011192 6.705692
									CHANNELS 3 Xrotation Yrotation Zrotation
									JOINT Bip01_R_UpperArm
									{
										OFFSET 20.272621 -12.959984 2.510816
										CHANNELS 3 Xrotation Yrotation Zrotation
										JOINT Bip01_R_Forearm
										{
											OFFSET -13.633509 -15.503704 -0.653585
											CHANNELS 3 Xrotation Yrotation Zrotation
											JOINT Bip01_R_Hand
											{
												OFFSET 2.580030 -27.804676 -1.136415
												CHANNELS 3 Xrotation Yrotation Zrotation
												JOINT Bip01_R_Finger0
												{
													OFFSET -0.281744 -19.659061 -0.398649
													CHANNELS 3 Xrotation Yrotation Zrotation
													JOINT Bip01_Xtra02
													{
														OFFSET 4.152210 -5.712314 0.433813
														CHANNELS 3 Xrotation Yrotation Zrotation
														JOINT Bip01_Xtra02Nub
														{
															OFFSET 15.457960 0.041654 0.507982
															CHANNELS 3 Xrotation Yrotation Zrotation
															End Site
															{
																OFFSET -15.421730 -0.157725 -1.163459
															}
														}
													}
													JOINT Bip01_R_Finger0Nub
													{
														OFFSET 8.362326 -9.718440 -0.143142
														CHANNELS 3 Xrotation Yrotation Zrotation
														End Site
														{
															OFFSET -1.213036 -0.198171 9.872291
														}
													}
												}
											}
										}
									}
								}
								JOINT Bip01_L_Clavicle
								{
									OFFSET -16.535673 0.011162 -6.705583
									CHANNELS 3 Xrotation Yrotation Zrotation
									JOINT Bip01_L_UpperArm
									{
										OFFSET 20.272615 -12.959999 -2.510836
										CHANNELS 3 Xrotation Yrotation Zrotation
										JOINT Bip01_L_Forearm
										{
											OFFSET -13.633495 -15.503681 0.653678
											CHANNELS 3 Xrotation Yrotation Zrotation
											JOINT Bip01_L_Hand
											{
												OFFSET 2.579988 -27.804686 1.136487
												CHANNELS 3 Xrotation Yrotation Zrotation
												JOINT Bip01_L_Finger0
												{
													OFFSET -0.281765 -19.659058 0.398696
													CHANNELS 3 Xrotation Yrotation Zrotation
													JOINT Bip01_Xtra01
													{
														OFFSET 4.083549 -5.738758 -0.666714
														CHANNELS 3 Xrotation Yrotation Zrotation
														JOINT Bip01_Xtra01Nub
														{
															OFFSET 6.758158 -0.395525 -0.023239
															CHANNELS 3 Xrotation Yrotation Zrotation
															End Site
															{
																OFFSET 6.764923 -0.254147 -0.029908
															}
														}
													}
													JOINT Bip01_L_Finger0Nub
													{
														OFFSET -0.012636 -9.629153 0.045740
														CHANNELS 3 Xrotation Yrotation Zrotation
														End Site
														{
															OFFSET 0.988407 0.004791 8.293357
														}
													}
												}
											}
										}
									}
								}
								JOINT BN_hair03_01
								{
									OFFSET -5.894140 16.270622 -2.498433
									CHANNELS 3 Xrotation Yrotation Zrotation
									JOINT BN_hair03_02
									{
										OFFSET -0.189278 -7.800507 -6.219162
										CHANNELS 3 Xrotation Yrotation Zrotation
										JOINT BN_hair03_03
										{
											OFFSET 0.612345 -10.844475 -3.370718
											CHANNELS 3 Xrotation Yrotation Zrotation
											End Site
											{
												OFFSET -2.273296 2.862007 -10.769416
											}
										}
									}
								}
								JOINT Bip01_Neck1
								{
									OFFSET 9.383755 11.908699 -0.000007
									CHANNELS 3 Xrotation Yrotation Zrotation
									JOINT BN_hair02_01
									{
										OFFSET 9.126320 18.808022 -1.420810
										CHANNELS 3 Xrotation Yrotation Zrotation
										JOINT BN_hair02_02
										{
											OFFSET 0.393478 -5.181091 -5.248574
											CHANNELS 3 Xrotation Yrotation Zrotation
											JOINT BN_hair02_03
											{
												OFFSET 0.762280 -8.167076 -0.230047
												CHANNELS 3 Xrotation Yrotation Zrotation
												End Site
												{
													OFFSET -0.025837 -1.251419 -8.109770
												}
											}
										}
									}
									JOINT Bip01_Head
									{
										OFFSET 14.266129 10.475403 -0.000008
										CHANNELS 3 Xrotation Yrotation Zrotation
										JOINT BN_Reins_01
										{
											OFFSET 18.547455 -15.740112 -0.000035
											CHANNELS 3 Xrotation Yrotation Zrotation
											JOINT BN_Reins_02
											{
												OFFSET -5.372810 -5.884506 0.000028
												CHANNELS 3 Xrotation Yrotation Zrotation
												JOINT BN_Reins_03
												{
													OFFSET -6.395866 -15.947449 0.000070
													CHANNELS 3 Xrotation Yrotation Zrotation
													JOINT BN_Halter_R_01
													{
														OFFSET -1.234055 -3.096100 7.096737
														CHANNELS 3 Xrotation Yrotation Zrotation
														End Site
														{
															OFFSET 10.514435 -4.176861 -0.000004
														}
													}
													JOINT BN_Halter_L_01
													{
														OFFSET -1.234062 -3.096146 -7.096726
														CHANNELS 3 Xrotation Yrotation Zrotation
														End Site
														{
															OFFSET -10.514435 4.176865 -0.000000
														}
													}
													JOINT BN_Reins_04
													{
														OFFSET -6.737644 -16.971684 0.000074
														CHANNELS 3 Xrotation Yrotation Zrotation
														JOINT BN_Halter_R_02
														{
															OFFSET -4.688869 -11.781956 7.096771
															CHANNELS 3 Xrotation Yrotation Zrotation
															End Site
															{
																OFFSET 14.669624 -5.827511 -0.000006
															}
														}
														JOINT BN_Halter_L_02
														{
															OFFSET -4.688892 -11.782017 -7.096693
															CHANNELS 3 Xrotation Yrotation Zrotation
															End Site
															{
																OFFSET -14.669624 5.827507 -0.000002
															}
														}
														JOINT BN_Reins_05
														{
															OFFSET -6.822578 -16.971161 0.000074
															CHANNELS 3 Xrotation Yrotation Zrotation
															JOINT BN_Reins_06
															{
																OFFSET -6.140354 -15.095148 0.000066
																CHANNELS 3 Xrotation Yrotation Zrotation
																End Site
																{
																	OFFSET -15.095150 6.140352 -0.000002
																}
															}
														}
													}
												}
											}
										}
										JOINT BN_hair01_01
										{
											OFFSET 8.957344 8.870956 0.112121
											CHANNELS 3 Xrotation Yrotation Zrotation
											JOINT BN_hair01_02
											{
												OFFSET 6.002075 -2.962952 -3.121264
												CHANNELS 3 Xrotation Yrotation Zrotation
												End Site
												{
													OFFSET 5.917702 3.813591 -2.232396
												}
											}
										}
										JOINT BN_Eyebrow_R
										{
											OFFSET 11.795959 -0.430496 4.449781
											CHANNELS 3 Xrotation Yrotation Zrotation
											JOINT Bip01_Xtra06Nub
											{
												OFFSET 2.936661 -0.262573 3.246701
												CHANNELS 3 Xrotation Yrotation Zrotation
												End Site
												{
													OFFSET 2.768745 0.208199 3.394807
												}
											}
										}
										JOINT BN_Eyebrow_L
										{
											OFFSET 11.586395 -0.445618 -4.441728
											CHANNELS 3 Xrotation Yrotation Zrotation
											JOINT Bip01_Xtra05Nub
											{
												OFFSET 3.244698 -0.349442 -4.416700
												CHANNELS 3 Xrotation Yrotation Zrotation
												End Site
												{
													OFFSET 3.053162 0.072495 -4.564033
												}
											}
										}
										JOINT Bip01_R_Ear_01
										{
											OFFSET 7.142960 7.567184 4.311657
											CHANNELS 3 Xrotation Yrotation Zrotation
											JOINT Bip01_Xtra04Nub
											{
												OFFSET 9.464531 9.264214 1.682953
												CHANNELS 3 Xrotation Yrotation Zrotation
												End Site
												{
													OFFSET 8.448181 10.159340 1.910823
												}
											}
										}
										JOINT Bip01__L_Ear_01
										{
											OFFSET 7.214943 7.717056 -4.356771
											CHANNELS 3 Xrotation Yrotation Zrotation
											JOINT Bip01_Xtra03Nub
											{
												OFFSET 9.230225 8.944366 -2.322746
												CHANNELS 3 Xrotation Yrotation Zrotation
												End Site
												{
													OFFSET 8.170288 9.841324 -2.643566
												}
											}
										}
										JOINT Bip01_Jaw
										{
											OFFSET 9.196068 -4.110695 -0.000013
											CHANNELS 3 Xrotation Yrotation Zrotation
											JOINT Bip01_Ponytail1Nub
											{
												OFFSET 10.976463 -21.082108 -0.000053
												CHANNELS 3 Xrotation Yrotation Zrotation
												End Site
												{
													OFFSET 11.247093 -20.938980 0.000113
												}
											}
										}
										JOINT Bip01_HeadNub
										{
											OFFSET 29.954575 -18.249489 -0.000063
											CHANNELS 3 Xrotation Yrotation Zrotation
											End Site
											{
												OFFSET -9.198448 -13.366348 0.000168
											}
										}
									}
								}
							}
						}
					}
				}
			}
		}
	}
}
MOTION
Frames: 4
Frame Time: 0.033333
0.000000 0.000000 0.000000 0.000008 0.000000 -0.000000 -0.000000 0.000000 -0.000000 2.382907 -1.803545 31.768733 -2.620773 0.796073 13.586489 0.389022 3.119603 2.894154 0.714019 -17.988288 -23.533277 0.468974 -20.555203 -30.002422 0.284256 -9.333234 5.450155 -0.405525 12.077952 51.771676 1.730244 -2.912854 -8.261653 -13.602008 -1.571582 1.660712 7.554911 -2.354636 -40.851392 -8.772724 -4.958685 52.615891 11.332217 -2.425483 -47.709537 1.116288 4.070822 -4.378840 -0.000567 -0.000563 -0.000093 -1.564037 -3.030143 4.828628 -8.012890 2.727550 -43.820824 8.358185 4.390405 49.089058 -2.345244 -0.524474 -35.096845 -2.954117 -0.528414 -11.544381 0.008696 -0.000024 0.038611 0.490312 -1.542720 -11.535645 -2.071884 5.523405 -25.523771 4.013487 -0.160611 -1.836784 0.804784 -1.288594 -7.226076 0.000077 -0.000112 -0.000058 -0.000052 -0.014958 0.015042 1.881353 1.572098 1.462611 6.612620 11.511997 -15.509073 4.832720 5.260768 -6.911396 0.667245 -2.958332 17.112682 -0.119336 1.624718 -25.985673 -2.931749 4.474540 4.727032 0.487994 -1.510804 39.494384 6.174973 -0.114667 -88.078083 5.972526 0.434681 -61.978666 1.328812 -0.673897 -3.857067 -0.802243 0.160577 -0.479907 -0.804177 0.123451 -0.482680 2.907743 8.132470 -53.565981 -8.705558 -0.809664 57.357490 -0.130153 -0.698767 -17.396435 -0.519511 -4.101561 -7.100060 0.944115 -6.700174 -13.899588 -0.660962 0.046009 -11.832282 0.036577 0.063751 2.451859 -0.000933 0.100619 2.451941 -2.063689 -0.136596 -1.786921 -1.967257 4.063834 -12.416742 -1.240221 3.692472 -12.163893 -0.918380 -2.488659 4.410479 2.786003 0.386715 2.767637 6.091972 0.438104 -10.338216 2.483110 -0.279404 -2.555210 2.508620 6.493346 -47.353640 -0.000110 -0.000397 -40.728322 -6.667337 9.036438 21.197818 -0.000076 -0.000096 -29.809743 0.000006 -0.000041 -1.797758 0.000013 -0.000035 -2.378475 -0.000142 -0.000128 -46.467730 -23.901277 -11.934499 -2.559851 34.949221 16.671903 -5.206618 -0.000080 -0.000109 -31.986981 0.000042 0.000060 -0.000077 0.819085 3.365108 -1.025466 -2.099135 -2.198665 2.722018 2.360971 -0.289650 -1.796234 0.018806 -0.023306 11.778637 0.000062 -0.000019 0.000053 0.023229 -0.032328 11.716004 30.332464 -59.793341 38.975798 0.039018 0.011712 11.754803 -38.568627 61.799354 58.063834 0.022900 0.006742 11.747241 -0.000021 0.000022 -0.352964 -0.003500 -0.040875 11.750683 0.000063 -0.000011 11.750654 
0.000000 0.000000 0.000000 0.000008 0.000000 -0.000000 -0.000000 0.000000 -0.000000 1.884229 -1.249786 31.608589 -2.493367 0.884753 13.352958 -0.537220 7.664261 7.020190 0.037396 -22.428705 -20.361146 0.375168 -20.811424 -29.798121 1.465083 -12.409805 -1.303710 0.067680 9.630582 44.692844 1.581698 -3.020701 -8.047166 -12.557701 -1.287890 0.021020 7.186292 -2.081464 -38.542580 -8.390033 -4.431420 49.350442 9.818032 -2.883249 -45.077432 1.149459 4.565247 -4.219389 -0.000567 -0.000564 -0.000093 -0.675096 -4.016273 1.959876 -7.750120 2.508661 -42.101532 8.164435 4.147939 47.533042 -3.138263 -0.230256 -32.648376 -2.936178 -0.466197 -11.106685 0.008696 -0.000024 0.038611 0.457243 -1.542500 -10.701020 -1.777890 4.930404 -26.181575 4.003184 -0.160040 -1.826216 0.774182 -1.302365 -6.609525 0.000077 -0.000112 -0.000053 -0.000051 -0.014959 0.015042 1.881319 1.572093 1.462653 6.612622 11.511998 -15.509075 4.827906 5.260578 -6.909472 0.501363 -2.676748 17.067014 -0.031658 1.346033 -25.694513 -2.970031 4.527043 2.403000 0.555236 -1.593955 42.103328 6.084956 -0.607197 -88.233231 6.069843 0.191662 -64.653109 1.256408 -1.088342 -4.089023 -0.802270 0.160577 -0.479907 -0.804177 0.123451 -0.482680 2.825653 7.667312 -52.181498 -8.270156 -1.176564 47.275673 -0.019691 -0.236829 -5.796486 -0.066030 -4.693160 -19.328744 0.018498 -6.065329 -19.669890 -0.625746 0.039843 -11.210405 0.036605 0.063753 2.451861 -0.000933 0.100619 2.451939 -2.061798 -0.136419 -1.786594 -1.966789 4.063003 -12.414579 -1.239991 3.691923 -12.162187 -0.926272 -2.193974 4.911794 2.801043 0.388803 2.766145 6.089775 0.437937 -10.334915 2.467935 -0.280623 -2.553408 3.804936 7.063578 -50.026020 -0.000109 -0.000396 -40.728329 -6.305282 8.366977 25.330682 -0.000082 -0.000100 -31.895822 0.000007 -0.000042 -1.797760 0.000014 -0.000036 -2.378474 -0.000155 -0.000133 -49.652303 -23.901281 -11.934503 -2.559862 34.949238 16.671892 -5.206641 -0.000072 -0.000120 -34.044009 0.000043 0.000061 -0.000077 1.101782 3.916627 -0.871896 -1.476940 -1.850011 2.701870 2.366474 -0.290415 -1.800405 0.018825 -0.023296 11.778660 0.000042 -0.000066 0.000056 0.023244 -0.032324 11.715981 32.497094 -61.456300 40.549276 0.039030 0.011733 11.754817 -40.284473 65.411499 57.961252 0.022913 0.006761 11.747236 -0.000016 0.000030 0.507678 -0.003482 -0.040896 11.750691 0.000063 -0.000010 11.750659 
0.000000 0.000000 0.000000 0.000008 0.000000 -0.000000 -0.000000 0.000000 -0.000000 1.380254 -0.611576 31.079710 -2.368354 0.965520 13.027846 -2.094606 11.983733 11.204391 0.241802 -26.554285 -16.451119 0.406937 -20.865808 -29.433273 1.777828 -17.373419 -14.437804 -0.009512 4.977978 29.839621 1.460574 -3.059903 -7.554601 -11.399543 -1.113309 -1.532870 6.789029 -1.811665 -36.124379 -7.938311 -3.880948 45.779411 8.253064 -3.451709 -42.361571 1.139568 4.967633 -3.875049 -0.000567 -0.000562 -0.000093 0.246839 -5.085909 -0.818296 -7.403885 2.239730 -39.896259 7.893601 3.830213 45.439199 -3.999331 -0.065075 -29.955034 -2.927322 -0.404181 -10.729361 0.008696 -0.000024 0.038611 0.415898 -1.567137 -9.628863 -1.496556 4.345669 -26.823077 3.993076 -0.159473 -1.815849 0.742811 -1.342464 -5.768499 0.000078 -0.000112 -0.000054 -0.000052 -0.014958 0.015046 1.881412 1.572108 1.462594 6.612617 11.511996 -15.509078 4.823189 5.260401 -6.907584 0.308562 -2.425205 17.191868 0.097005 1.097065 -25.515430 -3.009939 4.605688 -0.419013 0.624556 -1.672189 44.653547 6.046686 -1.079566 -87.007075 6.143167 -0.028838 -67.292465 1.183898 -1.494743 -4.316758 -0.802298 0.160577 -0.479909 -0.804177 0.123451 -0.482681 2.733523 7.135212 -50.322682 -8.029002 -1.491469 38.331199 0.001215 0.075514 1.840933 0.583500 -5.458106 -30.808460 -0.982996 -5.202773 -26.457839 -0.591181 0.034412 -10.600635 0.036633 0.063751 2.451858 -0.000932 0.100618 2.451937 -2.059964 -0.136272 -1.786330 -1.966330 4.062183 -12.412458 -1.239404 3.690512 -12.157821 -0.976363 -1.918289 5.624544 2.815799 0.390844 2.764706 6.087596 0.437768 -10.331684 2.452890 -0.281819 -2.551350 4.959898 7.179419 -52.305599 -0.000109 -0.000396 -40.728326 -6.138243 8.152259 28.434055 -0.000088 -0.000101 -33.721836 0.000006 -0.000041 -1.797760 0.000013 -0.000035 -2.378470 -0.000157 -0.000141 -52.460248 -23.901284 -11.934503 -2.559864 34.949224 16.671909 -5.206575 0.001163 -0.000623 -35.842671 0.000042 0.000059 -0.000073 1.377725 4.458161 -0.723866 -0.935396 -1.627495 2.917009 2.371872 -0.291161 -1.804507 0.018856 -0.023296 11.778701 0.000042 -0.000065 0.000055 0.023257 -0.032319 11.715958 34.569865 -62.971708 42.014184 0.039046 0.011758 11.754817 -41.685454 68.870833 57.540512 0.022922 0.006782 11.747236 -0.000014 0.000036 1.186675 -0.003465 -0.040917 11.750686 0.000063 -0.000010 11.750660 
0.000000 0.000000 0.000000 0.000008 0.000000 -0.000000 -0.000000 0.000000 -0.000000 0.913020 0.046935 30.271791 -2.243513 1.038595 12.589860 -4.490049 17.591320 16.431634 1.162108 -29.647553 -12.503405 0.486361 -21.162399 -28.358933 0.678266 -21.412139 -24.681865 -0.080995 0.880827 15.346134 1.359829 -3.050024 -6.851333 -10.263916 -1.044238 -2.559160 6.424452 -1.584791 -33.960670 -7.402938 -3.308952 41.847323 6.735904 -4.069330 -39.607738 1.077251 5.272413 -3.304254 -0.000567 -0.000565 -0.000093 1.151954 -6.188766 -3.245715 -7.009456 1.958164 -37.456897 7.547544 3.455995 42.881594 -4.809324 0.014775 -27.092727 -2.932107 -0.364443 -10.412083 0.008696 -0.000025 0.038611 0.372443 -1.594832 -8.412542 -1.291509 3.586357 -27.437471 3.982873 -0.158917 -1.805390 0.710429 -1.386168 -4.795220 0.000077 -0.000112 -0.000057 -0.000052 -0.014958 0.015043 1.881413 1.572108 1.462591 6.612611 11.511998 -15.509073 4.818447 5.260223 -6.905693 0.089119 -2.194941 17.455614 0.259649 0.863877 -25.445405 -3.047494 4.674852 -3.460551 0.695431 -1.745423 47.140094 6.064061 -1.532691 -84.568042 6.203419 -0.230756 -69.913782 1.108862 -1.904689 -4.547446 -0.802353 0.160589 -0.479913 -0.804177 0.123450 -0.482680 2.652660 6.552994 -48.203780 -8.020677 -1.653190 31.035997 -0.004305 0.236943 5.779547 1.280826 -6.260785 -40.852420 -1.905963 -4.183848 -33.426000 -0.555494 0.029352 -9.931193 0.036685 0.063751 2.451867 -0.000933 0.100619 2.451948 -2.058079 -0.136098 -1.786064 -1.965866 4.061359 -12.410317 -1.238719 3.688875 -12.152752 -1.063680 -1.654696 6.525909 2.830690 0.392901 2.763255 6.085404 0.437602 -10.328416 2.437569 -0.283058 -2.549088 5.954864 6.901467 -54.029542 -0.000110 -0.000396 -40.728326 -6.123169 8.345220 30.426673 -0.000093 -0.000105 -35.295071 0.000008 -0.000042 -1.797757 0.000014 -0.000036 -2.378477 -0.000166 -0.000144 -54.881437 -23.901286 -11.934504 -2.559862 34.949228 16.671908 -5.206574 -0.000110 -0.000117 -37.378958 0.000042 0.000060 -0.000079 1.602675 4.916484 -0.538671 -0.389386 -1.400702 3.132100 2.377323 -0.291908 -1.808649 0.018921 -0.023288 11.778782 0.000041 -0.000067 0.000053 0.023286 -0.032309 11.715917 36.549121 -64.376288 43.358495 0.039093 0.011793 11.754830 -42.618113 72.250246 56.608966 0.022945 0.006825 11.747217 -0.000013 0.000041 1.683009 -0.003430 -0.040959 11.750684 0.000062 -0.000011 11.750659 
